<mxfile host="app.diagrams.net" modified="2023-11-10T00:36:39.847Z" agent="Mozilla/5.0 (Windows NT 10.0; Win64; x64) AppleWebKit/537.36 (KHTML, like Gecko) Chrome/119.0.0.0 Safari/537.36" etag="2oifrfblZHWBe7X6_wL-" version="22.1.0" type="github">
  <diagram name="第 1 页" id="4HjXcZtkk9uEk8HWylbA">
    <mxGraphModel dx="989" dy="523" grid="1" gridSize="10" guides="1" tooltips="1" connect="1" arrows="1" fold="1" page="1" pageScale="1" pageWidth="827" pageHeight="1169" math="0" shadow="0">
      <root>
        <mxCell id="0" />
        <mxCell id="1" parent="0" />
        <mxCell id="kQmPnuv9_rnBx50t1HeZ-3" value="" style="edgeStyle=orthogonalEdgeStyle;rounded=0;orthogonalLoop=1;jettySize=auto;html=1;" edge="1" parent="1" source="kQmPnuv9_rnBx50t1HeZ-1" target="kQmPnuv9_rnBx50t1HeZ-4">
          <mxGeometry relative="1" as="geometry">
            <mxPoint x="150" y="240" as="targetPoint" />
          </mxGeometry>
        </mxCell>
        <mxCell id="kQmPnuv9_rnBx50t1HeZ-5" value="iosubmit_list" style="edgeLabel;html=1;align=center;verticalAlign=middle;resizable=0;points=[];" vertex="1" connectable="0" parent="kQmPnuv9_rnBx50t1HeZ-3">
          <mxGeometry x="-0.2609" y="-1" relative="1" as="geometry">
            <mxPoint y="-5" as="offset" />
          </mxGeometry>
        </mxCell>
        <mxCell id="kQmPnuv9_rnBx50t1HeZ-7" value="exec_list" style="edgeLabel;html=1;align=center;verticalAlign=middle;resizable=0;points=[];" vertex="1" connectable="0" parent="kQmPnuv9_rnBx50t1HeZ-3">
          <mxGeometry x="0.2453" relative="1" as="geometry">
            <mxPoint as="offset" />
          </mxGeometry>
        </mxCell>
        <mxCell id="kQmPnuv9_rnBx50t1HeZ-9" value="" style="edgeStyle=orthogonalEdgeStyle;rounded=0;orthogonalLoop=1;jettySize=auto;html=1;" edge="1" parent="1" source="kQmPnuv9_rnBx50t1HeZ-1" target="kQmPnuv9_rnBx50t1HeZ-8">
          <mxGeometry relative="1" as="geometry" />
        </mxCell>
        <mxCell id="kQmPnuv9_rnBx50t1HeZ-1" value="iser_conn" style="rounded=1;whiteSpace=wrap;html=1;" vertex="1" parent="1">
          <mxGeometry x="90" y="100" width="120" height="60" as="geometry" />
        </mxCell>
        <mxCell id="kQmPnuv9_rnBx50t1HeZ-4" value="iser_task" style="rhombus;whiteSpace=wrap;html=1;" vertex="1" parent="1">
          <mxGeometry x="110" y="390" width="80" height="80" as="geometry" />
        </mxCell>
        <mxCell id="kQmPnuv9_rnBx50t1HeZ-11" value="" style="edgeStyle=orthogonalEdgeStyle;rounded=0;orthogonalLoop=1;jettySize=auto;html=1;fillColor=#dae8fc;strokeColor=#6c8ebf;" edge="1" parent="1" source="kQmPnuv9_rnBx50t1HeZ-8">
          <mxGeometry relative="1" as="geometry">
            <mxPoint x="599.9999999999998" y="130" as="targetPoint" />
          </mxGeometry>
        </mxCell>
        <mxCell id="kQmPnuv9_rnBx50t1HeZ-15" style="edgeStyle=orthogonalEdgeStyle;rounded=0;orthogonalLoop=1;jettySize=auto;html=1;entryX=0;entryY=0.5;entryDx=0;entryDy=0;" edge="1" parent="1" source="kQmPnuv9_rnBx50t1HeZ-8" target="kQmPnuv9_rnBx50t1HeZ-13">
          <mxGeometry relative="1" as="geometry" />
        </mxCell>
        <mxCell id="kQmPnuv9_rnBx50t1HeZ-8" value="tgt_sched_events_list" style="ellipse;whiteSpace=wrap;html=1;rounded=1;" vertex="1" parent="1">
          <mxGeometry x="374" y="90" width="146" height="80" as="geometry" />
        </mxCell>
        <mxCell id="kQmPnuv9_rnBx50t1HeZ-12" value="tgt_exec_scheduled" style="triangle;whiteSpace=wrap;html=1;" vertex="1" parent="1">
          <mxGeometry x="600" y="90" width="170" height="80" as="geometry" />
        </mxCell>
        <mxCell id="kQmPnuv9_rnBx50t1HeZ-13" value="iser_sched_iosubmit" style="triangle;whiteSpace=wrap;html=1;direction=south;" vertex="1" parent="1">
          <mxGeometry x="412" y="220" width="70" height="140" as="geometry" />
        </mxCell>
      </root>
    </mxGraphModel>
  </diagram>
</mxfile>
